<?xml version="1.0" standalone="no"?>
<!DOCTYPE svg PUBLIC "-//W3C//DTD SVG 20010904//EN"
 "http://www.w3.org/TR/2001/REC-SVG-20010904/DTD/svg10.dtd">
<svg version="1.0" xmlns="http://www.w3.org/2000/svg"
 width="16.000000pt" height="16.000000pt" viewBox="0 0 16.000000 16.000000"
 preserveAspectRatio="xMidYMid meet">
<metadata>
Created by potrace 1.11, written by Peter Selinger 2001-2013
</metadata>
<g transform="translate(0.000000,16.000000) scale(0.010667,-0.010667)"
fill="#000000" stroke="none">
<path d="M500 1440 l0 -60 -125 0 -125 0 0 -65 0 -65 -65 0 -65 0 0 -125 0
-125 -60 0 -60 0 0 -250 0 -250 60 0 60 0 0 -125 0 -125 65 0 65 0 0 -60 0
-60 125 0 125 0 0 -65 0 -65 250 0 250 0 0 65 0 65 125 0 125 0 0 60 0 60 60
0 60 0 0 125 0 125 65 0 65 0 0 250 0 250 -65 0 -65 0 0 125 0 125 -60 0 -60
0 0 65 0 65 -125 0 -125 0 0 60 0 60 -250 0 -250 0 0 -60z"/>
</g>
</svg>
